# xmcd
#
# Track frame offsets:
#	150
#	15347
#	31168
#	44415
#	58529
#	74422
#	87795
#	107939
#	119606
#	133771
#	145128
#	159721
#	179518
#	197828
#	215805
#	230032
#
# Disc length: 3244 seconds
#
# Revision: 0
# Processed by: cddbd v1.5PL3 Copyright (c) Steve Scherf et al.
# Submitted via: dBpowerAMP V4.0
#
DISCID=f00caa10
DTITLE=Vagn and Vagabonderne - Bedste 1
DYEAR=1999
DGENRE=Country
TTITLE0=Du lille far og bedste - far
TTITLE1=Hvide Sande
TTITLE2=Farvel
TTITLE3=Du har trådt mine cirkler
TTITLE4=Et råb i natten
TTITLE5=En skikkelig fyr
TTITLE6=Ud i natten
TTITLE7=Hjemmemandens blues
TTITLE8=Anne Marie
TTITLE9=Vi to er venner
TTITLE10=En bytur
TTITLE11=Planetvalsen
TTITLE12=Himmelexpressen
TTITLE13=Lille kammerat
TTITLE14=Ingenting
TTITLE15=Jeg er zigeuner
EXTD=Vagn and Vagabonderne  -  Bedste I
EXTT0=
EXTT1=
EXTT2=
EXTT3=
EXTT4=
EXTT5=
EXTT6=
EXTT7=
EXTT8=
EXTT9=
EXTT10=
EXTT11=
EXTT12=
EXTT13=
EXTT14=
EXTT15=
PLAYORDER=
